<?xml version="1.0" encoding="UTF-8"?>
<svg version="1.1" xmlns="http://www.w3.org/2000/svg" width="160" height="200">
<path d="M0 0 C0.94895645 -0.00860046 1.8979129 -0.01720093 2.87562561 -0.02606201 C3.92027985 -0.03032196 4.96493408 -0.03458191 6.04124451 -0.03897095 C7.6878582 -0.05123718 7.6878582 -0.05123718 9.36773682 -0.06375122 C13.01467845 -0.08864057 16.66158098 -0.10513295 20.30857849 -0.11953735 C22.1755454 -0.12752287 22.1755454 -0.12752287 24.08022881 -0.13566971 C29.3139401 -0.15691 34.54764551 -0.17603789 39.78138828 -0.1872921 C47.26952565 -0.20350139 54.75714161 -0.23659646 62.24508244 -0.29369295 C68.15250759 -0.33719156 74.05981763 -0.3530506 79.96740532 -0.35942459 C82.47477358 -0.36613499 84.98213433 -0.38135138 87.48939705 -0.4053154 C91.00577723 -0.43699872 94.5208523 -0.4369977 98.03733826 -0.42959595 C99.06782288 -0.44600128 100.0983075 -0.46240662 101.16001892 -0.47930908 C108.16394112 -0.41916426 112.71864896 1.22550386 118.49217224 5.15390015 C119.37904724 5.73140015 120.26592224 6.30890015 121.17967224 6.90390015 C128.7886801 14.30725915 133.57951861 24.13372048 134.00683594 34.74249268 C134.0334306 37.26735428 134.03837605 39.79250493 134.02561951 42.31747437 C134.03269171 43.71818952 134.04144216 45.11889704 134.05172729 46.51959229 C134.07408774 50.29667187 134.07131288 54.07332977 134.06240582 57.85045004 C134.05726778 61.01615732 134.06461134 64.18178731 134.0718779 67.34748662 C134.08883515 74.82257834 134.08535411 82.29746573 134.06858826 89.77255249 C134.05167665 97.4560042 134.06749739 105.13888733 134.09981114 112.82227695 C134.1265982 119.44515907 134.13375841 126.06786521 134.12529606 132.69079602 C134.12039258 136.63485216 134.12244087 140.57856664 134.14308357 144.52257919 C134.16158463 148.23458165 134.1553091 151.94577368 134.13088417 155.65773392 C134.12357612 157.64966893 134.14062003 159.6416481 134.15870667 161.6335144 C134.03008467 173.97006858 130.08532029 184.19352355 121.49217224 193.15390015 C116.46824551 197.53373371 111.35545841 200.39397147 104.61685181 200.42132568 C103.6623262 200.42985565 102.7078006 200.43838562 101.72434998 200.44717407 C100.68891052 200.4462677 99.65347107 200.44536133 98.58665466 200.44442749 C97.48686783 200.45114471 96.38708099 200.45786194 95.25396729 200.46478271 C91.61847921 200.48377939 87.98317561 200.48768785 84.34764099 200.48983765 C81.81804325 200.49626461 79.28844627 200.50299289 76.7588501 200.51000977 C71.45533729 200.52198687 66.15189312 200.52577586 60.84837341 200.52450562 C54.7322238 200.5233051 48.61642758 200.5443923 42.50036734 200.57599294 C36.6019839 200.60537496 30.70370759 200.61247958 24.80524635 200.61128616 C22.30265676 200.61364363 19.80006445 200.6224753 17.29752159 200.6379509 C13.79334243 200.65759068 10.29006777 200.65177965 6.78587341 200.63973999 C5.75650665 200.650979 4.72713989 200.66221802 3.6665802 200.67379761 C-4.6726084 200.60115135 -10.74575498 198.26595598 -17.06251526 192.70858765 C-20.01396249 189.53378765 -22.3003738 185.8706675 -24.50782776 182.15390015 C-25.03446817 181.29257618 -25.03446817 181.29257618 -25.57174778 180.41385174 C-26.80058168 177.44711257 -26.76882624 175.02202963 -26.78198242 171.81108093 C-26.79694511 169.85343056 -26.79694511 169.85343056 -26.81221008 167.85623169 C-26.81310587 166.4115907 -26.81376945 164.96694955 -26.81422424 163.52230835 C-26.82184671 161.9993906 -26.83027436 160.4764767 -26.83944702 158.9535675 C-26.86139496 154.81696094 -26.87019173 150.6804283 -26.87527347 146.54377007 C-26.87891779 143.95731942 -26.88515836 141.37088809 -26.89227486 138.78444481 C-26.91677389 129.75500006 -26.92982147 120.72561276 -26.93336487 111.69613647 C-26.93699677 103.29025792 -26.96686607 94.88474525 -27.00876945 86.47897846 C-27.04351391 79.25502506 -27.05891405 72.03119262 -27.0596109 64.80715626 C-27.06040254 60.4958757 -27.06908813 56.18496754 -27.09760857 51.87377357 C-27.12385953 47.8147451 -27.12595576 43.75639584 -27.10995293 39.69732094 C-27.10814377 38.2126924 -27.11478087 36.7280242 -27.13077164 35.24348068 C-27.21848089 26.56737157 -26.74007626 20.24340805 -21.50782776 13.15390015 C-20.78595276 12.10202515 -20.06407776 11.05015015 -19.32032776 9.96640015 C-14.21705016 4.86312255 -7.36363393 0.0496074 0 0 Z " fill="#FDFEFD" transform="translate(26.507827758789063,-0.153900146484375)"/>
<path d="M0 0 C0.94895645 -0.00860046 1.8979129 -0.01720093 2.87562561 -0.02606201 C3.92027985 -0.03032196 4.96493408 -0.03458191 6.04124451 -0.03897095 C7.6878582 -0.05123718 7.6878582 -0.05123718 9.36773682 -0.06375122 C13.01467845 -0.08864057 16.66158098 -0.10513295 20.30857849 -0.11953735 C22.1755454 -0.12752287 22.1755454 -0.12752287 24.08022881 -0.13566971 C29.3139401 -0.15691 34.54764551 -0.17603789 39.78138828 -0.1872921 C47.26952565 -0.20350139 54.75714161 -0.23659646 62.24508244 -0.29369295 C68.15250759 -0.33719156 74.05981763 -0.3530506 79.96740532 -0.35942459 C82.47477358 -0.36613499 84.98213433 -0.38135138 87.48939705 -0.4053154 C91.00577723 -0.43699872 94.5208523 -0.4369977 98.03733826 -0.42959595 C99.06782288 -0.44600128 100.0983075 -0.46240662 101.16001892 -0.47930908 C108.16394112 -0.41916426 112.71864896 1.22550386 118.49217224 5.15390015 C119.37904724 5.73140015 120.26592224 6.30890015 121.17967224 6.90390015 C128.7886801 14.30725915 133.57951861 24.13372048 134.00683594 34.74249268 C134.0334306 37.26735428 134.03837605 39.79250493 134.02561951 42.31747437 C134.03269171 43.71818952 134.04144216 45.11889704 134.05172729 46.51959229 C134.07408774 50.29667187 134.07131288 54.07332977 134.06240582 57.85045004 C134.05726778 61.01615732 134.06461134 64.18178731 134.0718779 67.34748662 C134.08883515 74.82257834 134.08535411 82.29746573 134.06858826 89.77255249 C134.05167665 97.4560042 134.06749739 105.13888733 134.09981114 112.82227695 C134.1265982 119.44515907 134.13375841 126.06786521 134.12529606 132.69079602 C134.12039258 136.63485216 134.12244087 140.57856664 134.14308357 144.52257919 C134.16158463 148.23458165 134.1553091 151.94577368 134.13088417 155.65773392 C134.12357612 157.64966893 134.14062003 159.6416481 134.15870667 161.6335144 C134.03008467 173.97006858 130.08532029 184.19352355 121.49217224 193.15390015 C116.46824551 197.53373371 111.35545841 200.39397147 104.61685181 200.42132568 C103.6623262 200.42985565 102.7078006 200.43838562 101.72434998 200.44717407 C100.68891052 200.4462677 99.65347107 200.44536133 98.58665466 200.44442749 C97.48686783 200.45114471 96.38708099 200.45786194 95.25396729 200.46478271 C91.61847921 200.48377939 87.98317561 200.48768785 84.34764099 200.48983765 C81.81804325 200.49626461 79.28844627 200.50299289 76.7588501 200.51000977 C71.45533729 200.52198687 66.15189312 200.52577586 60.84837341 200.52450562 C54.7322238 200.5233051 48.61642758 200.5443923 42.50036734 200.57599294 C36.6019839 200.60537496 30.70370759 200.61247958 24.80524635 200.61128616 C22.30265676 200.61364363 19.80006445 200.6224753 17.29752159 200.6379509 C13.79334243 200.65759068 10.29006777 200.65177965 6.78587341 200.63973999 C5.75650665 200.650979 4.72713989 200.66221802 3.6665802 200.67379761 C-4.6726084 200.60115135 -10.74575498 198.26595598 -17.06251526 192.70858765 C-20.01396249 189.53378765 -22.3003738 185.8706675 -24.50782776 182.15390015 C-25.03446817 181.29257618 -25.03446817 181.29257618 -25.57174778 180.41385174 C-26.80058168 177.44711257 -26.76882624 175.02202963 -26.78198242 171.81108093 C-26.79694511 169.85343056 -26.79694511 169.85343056 -26.81221008 167.85623169 C-26.81310587 166.4115907 -26.81376945 164.96694955 -26.81422424 163.52230835 C-26.82184671 161.9993906 -26.83027436 160.4764767 -26.83944702 158.9535675 C-26.86139496 154.81696094 -26.87019173 150.6804283 -26.87527347 146.54377007 C-26.87891779 143.95731942 -26.88515836 141.37088809 -26.89227486 138.78444481 C-26.91677389 129.75500006 -26.92982147 120.72561276 -26.93336487 111.69613647 C-26.93699677 103.29025792 -26.96686607 94.88474525 -27.00876945 86.47897846 C-27.04351391 79.25502506 -27.05891405 72.03119262 -27.0596109 64.80715626 C-27.06040254 60.4958757 -27.06908813 56.18496754 -27.09760857 51.87377357 C-27.12385953 47.8147451 -27.12595576 43.75639584 -27.10995293 39.69732094 C-27.10814377 38.2126924 -27.11478087 36.7280242 -27.13077164 35.24348068 C-27.21848089 26.56737157 -26.74007626 20.24340805 -21.50782776 13.15390015 C-20.78595276 12.10202515 -20.06407776 11.05015015 -19.32032776 9.96640015 C-14.21705016 4.86312255 -7.36363393 0.0496074 0 0 Z M-15.50782776 16.15390015 C-18.94342285 21.53435798 -20.62665366 26.54490365 -20.66845703 32.93867493 C-20.67850266 34.14550934 -20.68854828 35.35234375 -20.69889832 36.5957489 C-20.70492846 37.93536315 -20.71081345 39.27497805 -20.71656799 40.61459351 C-20.72610819 42.02412142 -20.73599943 43.43364699 -20.74621582 44.84317017 C-20.77759895 49.4766665 -20.79787582 54.11018071 -20.81642151 58.7437439 C-20.81971883 59.53321891 -20.82301615 60.32269392 -20.82641339 61.13609242 C-20.85720802 68.58921359 -20.88390343 76.04233891 -20.90083218 83.49550533 C-20.92270027 93.01049397 -20.96458316 102.52491554 -21.03426975 112.03967756 C-21.08165586 118.73880524 -21.10578559 125.43778078 -21.11302906 132.13707072 C-21.11796576 136.1327968 -21.132854 140.12788383 -21.17277336 144.12342644 C-21.20991015 147.89032641 -21.21796254 151.65622962 -21.20476723 155.42327881 C-21.20484604 157.44638512 -21.23452549 159.46942447 -21.26545715 161.49229431 C-21.19695601 170.20030181 -19.49961542 176.91577083 -14.50782776 184.15390015 C-6.95567603 191.54982791 -0.61563942 193.45318889 9.72337341 193.46029663 C11.2658223 193.47278191 11.2658223 193.47278191 12.83943176 193.48551941 C16.23804009 193.50960831 19.63645634 193.51839118 23.03514099 193.5249939 C25.40300554 193.53396251 27.77086952 193.5430844 30.13873291 193.55235291 C35.10429765 193.56884347 40.06979497 193.5765429 45.03538513 193.57943726 C51.38276833 193.58481467 57.72951321 193.62246893 64.07671642 193.66818142 C68.9693734 193.69800095 73.86187776 193.70516192 78.75461769 193.70616341 C81.09368621 193.71035753 83.43275553 193.72275914 85.77173424 193.74368095 C89.0529586 193.77068959 92.33271777 193.76574022 95.61399841 193.75326538 C97.04907997 193.77551682 97.04907997 193.77551682 98.51315308 193.79821777 C106.29846382 193.71439552 112.81966877 191.49537747 118.646945 186.19335079 C126.67787025 177.85058424 126.93915159 169.05112212 126.91209412 158.00204468 C126.91944404 156.57867776 126.92803294 155.15531678 126.9377594 153.73196411 C126.95988709 149.8847284 126.96291051 146.03770742 126.96101189 142.19041681 C126.96089178 138.96995344 126.96947223 135.74953491 126.9777894 132.52908409 C126.99699198 124.92661574 126.99991879 117.32425718 126.9931488 109.72177124 C126.98651009 101.89860541 127.0093725 94.07591131 127.04646254 86.25284111 C127.07722589 79.51794455 127.08851241 72.78319923 127.08462572 66.04823387 C127.08256507 62.03377227 127.08793085 58.01967793 127.11251831 54.00528336 C127.13489334 50.22768279 127.13281974 46.45084571 127.11259079 42.67324066 C127.10759293 40.64032808 127.12712131 38.60740055 127.14759827 36.57458496 C127.06679564 27.70299336 125.65690541 20.7020476 119.53168488 14.0129261 C112.2979722 6.99593694 104.67093262 5.70376311 94.96458435 5.76571655 C93.94078171 5.76045959 92.91697906 5.75520264 91.8621521 5.74978638 C88.49778219 5.73664578 85.13389023 5.74530297 81.76951599 5.75546265 C79.42117218 5.75344037 77.07282898 5.75052765 74.7244873 5.74676514 C69.81129456 5.74234995 64.8982658 5.74874764 59.98509216 5.76278687 C53.69481082 5.77988749 47.40491327 5.7700266 41.11464596 5.75206947 C36.26843383 5.74121805 31.42231238 5.7446841 26.57609749 5.75245285 C24.25690732 5.7544506 21.93770885 5.75201056 19.61852837 5.74501419 C16.37558616 5.73737652 13.13326191 5.74903658 9.8903656 5.76571655 C8.93692261 5.75964386 7.98347961 5.75357117 7.00114441 5.74731445 C-2.5161918 5.83778087 -9.05711332 9.07213756 -15.50782776 16.15390015 Z " fill="#FCDF66" transform="translate(26.507827758789063,-0.153900146484375)"/>
<path d="M0 0 C0.90105469 0.00902344 1.80210938 0.01804687 2.73046875 0.02734375 C3.41753906 0.03894531 4.10460937 0.05054687 4.8125 0.0625 C4.73805664 0.92713867 4.66361328 1.79177734 4.58691406 2.68261719 C2.85676215 21.74046749 2.85676215 21.74046749 10.3671875 38.5 C14.61694744 42.83222025 19.21236452 46.69371208 24.10595703 50.28027344 C24.66911621 50.8684082 25.23227539 51.45654297 25.8125 52.0625 C25.63969763 54.68020216 25.2467339 55.6622792 23.31640625 57.44140625 C15.32441765 62.31378562 6.90692872 65.48613118 -2.5234375 63.59375 C-11.46457306 61.28281035 -18.74373662 56.89328367 -23.96875 49.171875 C-28.7049349 40.97463191 -29.25365592 32.40880145 -28.1875 23.0625 C-26.99989455 19.3384039 -25.37517696 16.28932351 -23.1875 13.0625 C-22.465625 11.99 -21.74375 10.9175 -21 9.8125 C-15.14366041 4.08630129 -8.30099941 -0.10780519 0 0 Z " fill="#63DEC6" transform="translate(108.1875,27.9375)"/>
<path d="M0 0 C1.6406543 -0.00422974 1.6406543 -0.00422974 3.31445312 -0.00854492 C4.52488281 -0.00652069 5.7353125 -0.00449646 6.98242188 -0.00241089 C8.24892578 -0.00416321 9.51542969 -0.00591553 10.8203125 -0.00772095 C14.30369007 -0.0122948 17.78703815 -0.01050592 21.27041626 -0.00734186 C24.90814293 -0.00481801 28.54586699 -0.00715587 32.18359375 -0.00872803 C38.29362442 -0.01054965 44.40364303 -0.0081436 50.51367188 -0.00338745 C57.58745033 0.00205516 64.66119997 0.0002925 71.73497772 -0.00521386 C77.79781085 -0.00974519 83.86063527 -0.01039543 89.92346954 -0.00777519 C93.54916354 -0.00621253 97.17484397 -0.00601835 100.80053711 -0.00931168 C104.84034952 -0.01272454 108.8801119 -0.00800032 112.91992188 -0.00241089 C114.13035156 -0.00443512 115.34078125 -0.00645935 116.58789062 -0.00854492 C117.68166016 -0.0057251 118.77542969 -0.00290527 119.90234375 0 C120.85878784 0.00037703 121.81523193 0.00075405 122.80065918 0.0011425 C124.95117188 0.12698364 124.95117188 0.12698364 125.95117188 1.12698364 C126.13867188 3.56448364 126.13867188 3.56448364 125.95117188 6.12698364 C123.38457184 8.69358368 122.42986284 8.37808946 118.86474609 8.38095093 C117.78787537 8.38659058 116.71100464 8.39223022 115.60150146 8.39804077 C114.41493958 8.39399231 113.22837769 8.38994385 112.00585938 8.38577271 C110.13755463 8.39102966 110.13755463 8.39102966 108.23150635 8.39639282 C104.81002724 8.40370221 101.38878906 8.4019676 97.9673233 8.39563465 C94.39146087 8.39058102 90.81560892 8.39526432 87.23974609 8.39840698 C81.23403061 8.40204849 75.22836427 8.3972427 69.22265625 8.38772583 C62.27324676 8.3768409 55.32395461 8.38036635 48.37454796 8.39137864 C42.41443055 8.40044627 36.45434853 8.40173937 30.49422646 8.3965013 C26.93165793 8.3933787 23.3691446 8.39298017 19.80657959 8.39957428 C15.83650123 8.40640901 11.86655495 8.39694352 7.89648438 8.38577271 C6.11664154 8.3918454 6.11664154 8.3918454 4.30084229 8.39804077 C3.22397156 8.39240112 2.14710083 8.38676147 1.03759766 8.38095093 C-0.37161453 8.37981985 -0.37161453 8.37981985 -1.80929565 8.37866592 C-4.04882812 8.12698364 -4.04882812 8.12698364 -6.04882812 6.12698364 C-6.23632812 3.56448364 -6.23632812 3.56448364 -6.04882812 1.12698364 C-4.36916995 -0.55267454 -2.30449848 0.00090842 0 0 Z " fill="#6BDEC9" transform="translate(20.048828125,163.87301635742188)"/>
<path d="M0 0 C17.06300587 -0.02332863 34.12600678 -0.04097899 51.18902493 -0.05181217 C59.11112945 -0.05697521 67.03322409 -0.06401805 74.95532227 -0.07543945 C81.85774637 -0.08538606 88.76016331 -0.09185337 95.66259438 -0.09408849 C99.31960661 -0.09539564 102.97659836 -0.09848174 106.63360405 -0.10573006 C110.70944006 -0.11374348 114.78524013 -0.11399115 118.86108398 -0.11352539 C120.69311119 -0.1189183 120.69311119 -0.1189183 122.56214905 -0.12442017 C123.66577789 -0.1230455 124.76940674 -0.12167084 125.90647888 -0.12025452 C126.87159614 -0.12117631 127.83671339 -0.1220981 128.83107662 -0.12304783 C131 0 131 0 132 1 C132.125 3.5 132.125 3.5 132 6 C130.32034182 7.67965818 128.25567036 7.12607522 125.95117188 7.12698364 C124.31051758 7.13121338 124.31051758 7.13121338 122.63671875 7.13552856 C121.42628906 7.13350433 120.21585937 7.1314801 118.96875 7.12939453 C117.70224609 7.13114685 116.43574219 7.13289917 115.13085938 7.13470459 C111.64748181 7.13927845 108.16413373 7.13748956 104.68075562 7.1343255 C101.04302895 7.13180166 97.40530488 7.13413951 93.76757812 7.13571167 C87.65754745 7.13753329 81.54752884 7.13512725 75.4375 7.13037109 C68.36372155 7.12492849 61.28997191 7.12669115 54.21619415 7.1321975 C48.15336103 7.13672884 42.0905366 7.13737908 36.02770233 7.13475883 C32.40200833 7.13319617 28.7763279 7.13300199 25.15063477 7.13629532 C21.11082235 7.13970819 17.07105997 7.13498396 13.03125 7.12939453 C11.82082031 7.13141876 10.61039063 7.13344299 9.36328125 7.13552856 C8.26951172 7.13270874 7.17574219 7.12988892 6.04882812 7.12698364 C5.09238403 7.12660662 4.13593994 7.12622959 3.1505127 7.12584114 C1 7 1 7 0 6 C-0.04080783 4.00041636 -0.04254356 1.99954746 0 0 Z " fill="#5FDEC7" transform="translate(14,147)"/>
<path d="M0 0 C10.1966332 0 16.80220791 2.0514012 24.24609375 9.07421875 C30.94548355 16.43011891 33 23.01516429 33 33 C22.11 33 11.22 33 0 33 C0 22.11 0 11.22 0 0 Z " fill="#F16B55" transform="translate(116,22)"/>
<path d="M0 0 C1.66666667 0 3.33333333 0 5 0 C5.93020386 3.15612956 6.12352627 5.9796217 6.12025452 9.26446533 C6.12162918 10.3301474 6.12300385 11.39582947 6.12442017 12.49380493 C6.12082489 13.65761688 6.11722961 14.82142883 6.11352539 16.02050781 C6.11367142 17.25004181 6.11381744 18.47957581 6.1139679 19.74636841 C6.11339078 23.11381682 6.1083769 26.48120385 6.10139394 29.8486414 C6.09514092 33.3693683 6.09455506 36.89009603 6.09336853 40.41082764 C6.09026097 47.07598735 6.08205531 53.74113065 6.07201904 60.40628314 C6.06084007 67.99510469 6.05534295 75.58392703 6.05032361 83.17275476 C6.03987223 98.78184601 6.0222839 114.39092089 6 130 C5.34 130 4.68 130 4 130 C3.67 130.99 3.34 131.98 3 133 C2.67 133 2.34 133 2 133 C1.25367518 128.30622069 0.85705981 123.77293414 0.79467773 119.0222168 C0.77983259 118.02787188 0.77983259 118.02787188 0.76468754 117.01343918 C0.73322215 114.82540091 0.70829687 112.63734301 0.68359375 110.44921875 C0.66287628 108.88989339 0.64183218 107.33057234 0.6204834 105.77125549 C0.56483653 101.60374289 0.51539163 97.43617889 0.46757126 93.26856995 C0.43752503 90.68964801 0.40571274 88.11075383 0.37332153 85.53186035 C0.01642384 57.02044222 -0.13372247 28.51374426 0 0 Z " fill="#FDDE59" transform="translate(153,25)"/>
<path d="M0 0 C35.64 0 71.28 0 108 0 C107.34 0.33 106.68 0.66 106 1 C105.34786708 3.02463255 105.34786708 3.02463255 105 5 C100.26094981 6.20892374 95.64612345 6.14781474 90.79101562 6.14526367 C89.87172775 6.14862228 88.95243988 6.1519809 88.0052948 6.15544128 C84.97226606 6.16492567 81.93929264 6.16689295 78.90625 6.16796875 C76.79545062 6.17118242 74.68465145 6.17454657 72.57385254 6.17805481 C68.15225711 6.18403932 63.73068122 6.18589534 59.30908203 6.18530273 C53.64299706 6.185201 47.97703707 6.19886792 42.31098175 6.21607494 C37.95297673 6.22719017 33.595002 6.22922211 29.23698425 6.22869301 C27.14779732 6.22987328 25.05860962 6.23429766 22.96943665 6.24202538 C20.04919649 6.25181813 17.12922888 6.24895028 14.20898438 6.24291992 C13.34649582 6.24853943 12.48400726 6.25415894 11.59538269 6.25994873 C7.27601368 6.23727323 3.93542109 6.01392335 0 4 C0 2.68 0 1.36 0 0 Z " fill="#FEDD5A" transform="translate(26,194)"/>
<path d="M0 0 C1.25477646 -0.00637985 2.50955292 -0.0127597 3.80235291 -0.01933289 C5.18276939 -0.02086145 6.56318638 -0.02197547 7.94360352 -0.02270508 C9.34985896 -0.025916 10.75611405 -0.02927995 12.16236877 -0.03279114 C15.11395034 -0.03878864 18.06550261 -0.04063041 21.01708984 -0.04003906 C24.80481022 -0.03993742 28.59234324 -0.05358917 32.38001919 -0.07081127 C35.28559741 -0.08191375 38.1911301 -0.08395881 41.09672737 -0.08342934 C42.49341541 -0.08461212 43.89010452 -0.08905054 45.28677177 -0.0967617 C47.23803178 -0.10652558 49.1893464 -0.10242867 51.140625 -0.09765625 C52.2523558 -0.09908127 53.36408661 -0.10050629 54.50950623 -0.10197449 C57.13500977 0.14526367 57.13500977 0.14526367 59.13500977 2.14526367 C58.57945421 6.70081923 58.57945421 6.70081923 57.13500977 8.14526367 C55.18220792 8.24977136 53.22560432 8.28381742 51.27001953 8.29052734 C50.01524307 8.2969072 48.76046661 8.30328705 47.46766663 8.30986023 C46.08725014 8.31138879 44.70683315 8.31250281 43.32641602 8.31323242 C41.92016058 8.31644335 40.51390548 8.31980729 39.10765076 8.32331848 C36.15606919 8.32931599 33.20451692 8.33115775 30.25292969 8.33056641 C26.46520931 8.33046476 22.67767629 8.34411652 18.89000034 8.36133862 C15.98442212 8.3724411 13.07888943 8.37448616 10.17329216 8.37395668 C8.77660412 8.37513947 7.37991501 8.37957788 5.98324776 8.38728905 C4.03198775 8.39705292 2.08067313 8.39295601 0.12939453 8.38818359 C-1.53820168 8.39032112 -1.53820168 8.39032112 -3.23948669 8.39250183 C-5.86499023 8.14526367 -5.86499023 8.14526367 -7.86499023 6.14526367 C-7.11367799 -0.01549677 -5.96209807 0.02045692 0 0 Z " fill="#62DDC5" transform="translate(86.864990234375,128.854736328125)"/>
<path d="M0 0 C1.02814316 0.00222061 2.05628632 0.00444122 3.11558533 0.00672913 C4.27671341 0.00680466 5.43784149 0.00688019 6.63415527 0.00695801 C8.52943214 0.01469994 8.52943214 0.01469994 10.46299744 0.02259827 C12.39193092 0.02472069 12.39193092 0.02472069 14.35983276 0.02688599 C17.78427561 0.03071034 21.20867628 0.0405399 24.63310242 0.05158997 C28.12522308 0.06180587 31.61735053 0.06638399 35.10948181 0.07142639 C41.96561897 0.08216225 48.82172806 0.09923767 55.67784119 0.12025452 C56.30284119 2.99525452 56.30284119 2.99525452 56.67784119 6.12025452 C54.05369363 8.74440207 52.90803057 8.37323548 49.25010681 8.37904358 C48.1155304 8.3853479 46.98095398 8.39165222 45.81199646 8.39814758 C43.96668335 8.39207489 43.96668335 8.39207489 42.08409119 8.38587952 C40.82648987 8.38779297 39.56888855 8.38970642 38.2731781 8.39167786 C35.60991243 8.39304101 32.94701189 8.39033458 30.28379822 8.3809967 C26.86712724 8.36960204 23.45077046 8.37616199 20.03411102 8.38814163 C16.77992639 8.39709905 13.52577991 8.3908308 10.27159119 8.38587952 C9.04138245 8.38992798 7.81117371 8.39397644 6.54368591 8.39814758 C4.84182129 8.3886911 4.84182129 8.3886911 3.10557556 8.37904358 C2.10345032 8.37745239 1.10132507 8.37586121 0.0688324 8.3742218 C-2.32215881 8.12025452 -2.32215881 8.12025452 -4.32215881 6.12025452 C-3.59851208 0.18635131 -3.59851208 0.18635131 0 0 Z " fill="#62DDC5" transform="translate(17.322158813476563,128.87974548339844)"/>
<path d="M0 0 C10.23 0 20.46 0 31 0 C31 10.18461538 31 10.18461538 28.8125 14.25 C28.40644531 15.03890625 28.00039062 15.8278125 27.58203125 16.640625 C25.69311326 19.457678 23.41779927 21.63112214 21 24 C17.9997088 21.07380414 15.00934707 18.13792339 12.02783203 15.19262695 C11.01195893 14.19185072 9.99341103 13.19378218 8.97216797 12.19848633 C7.50559059 10.7682527 6.04887437 9.32859157 4.59375 7.88671875 C3.71396484 7.02264404 2.83417969 6.15856934 1.92773438 5.26831055 C0 3 0 3 0 0 Z " fill="#FAC552" transform="translate(119,58)"/>
<path d="M0 0 C0.9343689 -0.00637985 1.86873779 -0.0127597 2.8314209 -0.01933289 C3.84289185 -0.02044571 4.85436279 -0.02155853 5.89648438 -0.02270508 C6.93212524 -0.02603348 7.96776611 -0.02936188 9.03479004 -0.03279114 C11.22712763 -0.03785968 13.41947296 -0.04019949 15.61181641 -0.04003906 C18.97636525 -0.04222731 22.34058727 -0.06038874 25.70507812 -0.0793457 C27.83137908 -0.08227921 29.9576816 -0.08426429 32.08398438 -0.08520508 C33.6011908 -0.09598335 33.6011908 -0.09598335 35.14904785 -0.10697937 C36.08341675 -0.10390274 37.01778564 -0.10082611 37.98046875 -0.09765625 C38.80494507 -0.09908127 39.62942139 -0.10050629 40.47888184 -0.10197449 C42.49023438 0.14526367 42.49023438 0.14526367 44.49023438 2.14526367 C44.67773438 4.70776367 44.67773438 4.70776367 44.49023438 7.14526367 C42.87923792 8.75626013 41.13832173 8.28067798 38.91040039 8.29052734 C37.44867149 8.30009712 37.44867149 8.30009712 35.95741272 8.30986023 C34.36684303 8.31152946 34.36684303 8.31152946 32.74414062 8.31323242 C31.66269272 8.31656082 30.58124481 8.31988922 29.46702576 8.32331848 C27.17455472 8.32839245 24.88207626 8.33072666 22.58959961 8.33056641 C19.07132871 8.33275212 15.55337156 8.35090095 12.03515625 8.36987305 C9.81315212 8.37280695 7.59114649 8.37479177 5.36914062 8.37573242 C4.31078506 8.38291794 3.2524295 8.39010345 2.16200256 8.39750671 C0.69554543 8.39289177 0.69554543 8.39289177 -0.80053711 8.38818359 C-2.09507057 8.39032112 -2.09507057 8.39032112 -3.41575623 8.39250183 C-5.50976562 8.14526367 -5.50976562 8.14526367 -7.50976562 6.14526367 C-7.25976562 3.58276367 -7.25976562 3.58276367 -6.50976562 1.14526367 C-4.12904781 -0.04509524 -2.65659182 0.01228221 0 0 Z " fill="#61DEC6" transform="translate(20.509765625,108.854736328125)"/>
<path d="M0 0 C3.63 0 7.26 0 11 0 C11 11.88 11 23.76 11 36 C7.7 36 4.4 36 1 36 C0 35 0 35 -0.11352539 31.67358398 C-0.11336629 30.19774444 -0.10767314 28.72189931 -0.09765625 27.24609375 C-0.09553383 26.08292381 -0.09553383 26.08292381 -0.09336853 24.89625549 C-0.08775345 22.40996506 -0.07519846 19.9237634 -0.0625 17.4375 C-0.05748694 15.75586067 -0.0529237 14.07421994 -0.04882812 12.39257812 C-0.03777913 8.26168434 -0.02050445 4.13085724 0 0 Z " fill="#FA5857" transform="translate(32,44)"/>
<path d="M0 0 C1.20849609 -0.00386719 1.20849609 -0.00386719 2.44140625 -0.0078125 C4.4375 0.125 4.4375 0.125 5.4375 1.125 C5.53753289 3.25853174 5.56831048 5.39537542 5.5703125 7.53125 C5.57160156 8.83191406 5.57289062 10.13257813 5.57421875 11.47265625 C5.57107666 12.49383545 5.57107666 12.49383545 5.56787109 13.53564453 C5.5625224 15.61628515 5.5678168 17.69670989 5.57421875 19.77734375 C5.57292969 21.07800781 5.57164063 22.37867188 5.5703125 23.71875 C5.56918457 24.92208984 5.56805664 26.12542969 5.56689453 27.36523438 C5.4375 30.125 5.4375 30.125 4.4375 31.125 C2.77320949 31.22323937 1.10468069 31.25473631 -0.5625 31.25 C-1.92375 31.25386719 -1.92375 31.25386719 -3.3125 31.2578125 C-5.5625 31.125 -5.5625 31.125 -6.5625 30.125 C-6.65025605 27.97941173 -6.66945219 25.83095579 -6.66015625 23.68359375 C-6.65693359 22.37841797 -6.65371094 21.07324219 -6.65039062 19.72851562 C-6.64203401 18.3398431 -6.63356905 16.95117123 -6.625 15.5625 C-6.61998666 14.16992344 -6.61542347 12.77734519 -6.61132812 11.38476562 C-6.59949434 7.9648013 -6.5830088 4.54492156 -6.5625 1.125 C-4.1828388 -0.0648306 -2.64764265 -0.00849966 0 0 Z " fill="#FC9453" transform="translate(21.5625,48.875)"/>
<path d="M0 0 C1 3 1 3 -0.0390625 5.70703125 C-5.00902511 15.43885458 -9.73847127 21.8785918 -19.3125 27.3125 C-23.51012125 28.38631009 -27.69177962 28.15057858 -32 28 C-32 27.67 -32 27.34 -32 27 C-30.35 26.67 -28.7 26.34 -27 26 C-26.505 24.515 -26.505 24.515 -26 23 C-59.33 22.67 -92.66 22.34 -127 22 C-127 21.67 -127 21.34 -127 21 C-125.11651352 20.99786247 -125.11651352 20.99786247 -123.19497681 20.99568176 C-111.33670222 20.97898116 -99.47876946 20.93611362 -87.62067604 20.86790943 C-81.52489976 20.83368168 -75.429373 20.80853593 -69.33349609 20.80444336 C-63.4458637 20.8001515 -57.55879379 20.77161416 -51.67133713 20.72656822 C-49.4300197 20.71362174 -47.18863486 20.70927537 -44.9472847 20.71384621 C-41.79709073 20.71877227 -38.64852807 20.69256925 -35.49853516 20.65942383 C-34.1218013 20.67236229 -34.1218013 20.67236229 -32.71725464 20.68556213 C-25.24163135 20.55450173 -18.50260628 18.41382555 -13.0488224 13.098279 C-11.61713831 11.44755947 -10.30542091 9.75085169 -9 8 C-8.34 7.34 -7.68 6.68 -7 6 C-4.375 6.375 -4.375 6.375 -2 7 C-2.04125 6.21625 -2.0825 5.4325 -2.125 4.625 C-2 2 -2 2 0 0 Z " fill="#F9DF7E" transform="translate(158,172)"/>
<path d="M0 0 C1.0374939 0.00303635 1.0374939 0.00303635 2.09594727 0.00613403 C2.80243408 0.00517731 3.5089209 0.00422058 4.23681641 0.00323486 C5.7331552 0.00255321 7.22949694 0.00440649 8.72583008 0.00857544 C11.02374884 0.01392396 13.32147213 0.00863003 15.61938477 0.00222778 C17.06990603 0.00288857 18.52042718 0.00416974 19.97094727 0.00613403 C20.66260986 0.0041098 21.35427246 0.00208557 22.06689453 0 C26.91849503 0.0239943 26.91849503 0.0239943 28.03344727 1.13894653 C28.15844727 3.63894653 28.15844727 3.63894653 28.03344727 6.13894653 C27.03344727 7.13894653 27.03344727 7.13894653 23.890625 7.25247192 C22.49942029 7.25231286 21.10820966 7.2466216 19.71704102 7.23660278 C18.98598648 7.23518784 18.25493195 7.23377289 17.50172424 7.23231506 C15.15809094 7.22670062 12.81455187 7.21414575 10.47094727 7.20144653 C8.88566218 7.19643339 7.30037561 7.19187016 5.71508789 7.18777466 C1.82117117 7.1767265 -2.07267479 7.15945225 -5.96655273 7.13894653 C-6.0090963 5.13939907 -6.00736056 3.13853017 -5.96655273 1.13894653 C-4.28981624 -0.53778996 -2.23800198 0.01106836 0 0 Z " fill="#7FD857" transform="translate(19.966552734375,15.861053466796875)"/>
<path d="M0 0 C0.8146875 0.00257812 1.629375 0.00515625 2.46875 0.0078125 C3.2834375 0.00523438 4.098125 0.00265625 4.9375 0 C6.96875 0.1328125 6.96875 0.1328125 7.96875 1.1328125 C8.06735131 2.53629985 8.09953937 3.94461727 8.1015625 5.3515625 C8.10349609 6.62580078 8.10349609 6.62580078 8.10546875 7.92578125 C8.10160156 8.81910156 8.09773438 9.71242188 8.09375 10.6328125 C8.09761719 11.52613281 8.10148437 12.41945313 8.10546875 13.33984375 C8.10417969 14.18933594 8.10289063 15.03882812 8.1015625 15.9140625 C8.10043457 16.69845703 8.09930664 17.48285156 8.09814453 18.29101562 C7.96875 20.1328125 7.96875 20.1328125 6.96875 21.1328125 C5.28266034 21.20486761 3.59374341 21.21667318 1.90625 21.1953125 C0.98714844 21.18628906 0.06804688 21.17726563 -0.87890625 21.16796875 C-1.58917969 21.15636719 -2.29945312 21.14476563 -3.03125 21.1328125 C-3.06013146 17.82033063 -3.07800799 14.50788083 -3.09375 11.1953125 C-3.10212891 10.24978516 -3.11050781 9.30425781 -3.11914062 8.33007812 C-3.12236328 7.43095703 -3.12558594 6.53183594 -3.12890625 5.60546875 C-3.13414307 4.77281494 -3.13937988 3.94016113 -3.14477539 3.08227539 C-2.9874586 0.38082477 -2.69723352 0.17635758 0 0 Z " fill="#7DD956" transform="translate(52.03125,58.8671875)"/>
<path d="M0 0 C8.28361649 0 14.26806362 0.80119739 20.625 6.25 C21.07875 6.8275 21.5325 7.405 22 8 C19.69 8.33 17.38 8.66 15 9 C15 8.01 15 7.02 15 6 C12.03 5.505 12.03 5.505 9 5 C8.938125 5.598125 8.87625 6.19625 8.8125 6.8125 C8.544375 7.534375 8.27625 8.25625 8 9 C6.7625 9.51046875 6.7625 9.51046875 5.5 10.03125 C2.85556301 11.70004932 2.85556301 11.70004932 2.49682617 14.02026367 C2.28124903 16.58885885 2.20537408 19.10910945 2.1875 21.6875 C2.125625 24.760625 2.06375 27.83375 2 31 C12.23 31.33 22.46 31.66 33 32 C33 32.33 33 32.66 33 33 C22.11 33 11.22 33 0 33 C0 22.11 0 11.22 0 0 Z " fill="#EC816D" transform="translate(116,22)"/>
<path d="M0 0 C9.13554168 2.39264187 13.38288361 8.22599982 18 16 C19.53260593 18.73314724 20 19.78946081 20 23 C18.125 24.0625 18.125 24.0625 16 25 C13.26279423 23.63139711 13.02976915 22.09186198 11.8125 19.3125 C8.52968518 12.59328839 4.54992144 8.80392306 -2.4375 6.125 C-3.613125 5.75375 -4.78875 5.3825 -6 5 C-2.25 3 -2.25 3 0 3 C0 2.01 0 1.02 0 0 Z " fill="#FDE37A" transform="translate(138,2)"/>
<path d="M0 0 C0.33 0 0.66 0 1 0 C1.00423194 0.79275298 1.00846388 1.58550596 1.01282406 2.40228176 C1.11598564 21.66339152 1.22460134 40.92446339 1.33933926 60.18550777 C1.39469243 69.4998796 1.4481778 78.81425525 1.49731445 88.12866211 C1.5401307 96.24407766 1.58640212 104.35946476 1.63687855 112.47483641 C1.66350018 116.77458118 1.68835368 121.07432023 1.70907402 125.37409782 C1.72860835 129.41645607 1.75274231 133.45876007 1.78049088 137.50107002 C1.78987835 138.98903039 1.79754748 140.47700268 1.80341911 141.96498108 C1.81165149 143.98778103 1.82651711 146.01055083 1.84178162 148.03330994 C1.84823417 149.1680371 1.85468672 150.30276426 1.8613348 151.4718771 C1.71451868 153.93695854 1.71451868 153.93695854 3 155 C3.04063832 156.66617115 3.042721 158.33388095 3 160 C-0.15546887 156.58325118 -0.37181376 154.17877453 -0.36076355 149.59661865 C-0.36488754 148.27851196 -0.36901154 146.96040527 -0.3732605 145.60235596 C-0.36264363 144.14343057 -0.35173921 142.68450725 -0.34057617 141.22558594 C-0.33972988 139.68806983 -0.34020508 138.15055251 -0.34190369 136.61303711 C-0.34276499 132.43974723 -0.3251175 128.26671565 -0.30418181 124.09348583 C-0.28543744 119.73195388 -0.28366634 115.37041611 -0.28010559 111.0088501 C-0.27077854 102.74992258 -0.24615582 94.49111409 -0.21605712 86.23223901 C-0.18253366 76.82968171 -0.16603227 67.42711876 -0.15097082 58.02451658 C-0.11960684 38.68294355 -0.06683351 19.34148134 0 0 Z " fill="#FADE6A" transform="translate(0,22)"/>
<path d="M0 0 C17.06300587 -0.02332863 34.12600678 -0.04097899 51.18902493 -0.05181217 C59.11112945 -0.05697521 67.03322409 -0.06401805 74.95532227 -0.07543945 C81.85774637 -0.08538606 88.76016331 -0.09185337 95.66259438 -0.09408849 C99.31960661 -0.09539564 102.97659836 -0.09848174 106.63360405 -0.10573006 C110.70944006 -0.11374348 114.78524013 -0.11399115 118.86108398 -0.11352539 C120.69311119 -0.1189183 120.69311119 -0.1189183 122.56214905 -0.12442017 C123.66577789 -0.1230455 124.76940674 -0.12167084 125.90647888 -0.12025452 C126.87159614 -0.12117631 127.83671339 -0.1220981 128.83107662 -0.12304783 C131 0 131 0 132 1 C132.125 3.5 132.125 3.5 132 6 C131 7 131 7 128.4375 7.0625 C127.2309375 7.0315625 127.2309375 7.0315625 126 7 C126.66 6.54625 127.32 6.0925 128 5.625 C128.66 5.08875 129.32 4.5525 130 4 C130 3.34 130 2.68 130 2 C87.76 1.67 45.52 1.34 2 1 C1.67 2.65 1.34 4.3 1 6 C0.67 6 0.34 6 0 6 C0 4.02 0 2.04 0 0 Z " fill="#6BD9C2" transform="translate(14,147)"/>
<path d="M0 0 C10.23 0 20.46 0 31 0 C30.67 1.32 30.34 2.64 30 4 C28.92685547 4.03758423 28.92685547 4.03758423 27.83203125 4.07592773 C24.5545453 4.19279152 21.27728384 4.31510423 18 4.4375 C16.87464844 4.47681641 15.74929687 4.51613281 14.58984375 4.55664062 C8.66838092 4.78172547 2.86477138 5.14472084 -3 6 C-3 5.01 -3 4.02 -3 3 C-2.01 2.34 -1.02 1.68 0 1 C0 0.67 0 0.34 0 0 Z " fill="#FEDE59" transform="translate(26,0)"/>
<path d="M0 0 C6.65686814 -0.0505916 13.31368694 -0.0856876 19.97070312 -0.10986328 C22.23667249 -0.11993859 24.50262881 -0.13359918 26.76855469 -0.15087891 C30.02021501 -0.17506011 33.27170387 -0.18646763 36.5234375 -0.1953125 C38.05005508 -0.21079636 38.05005508 -0.21079636 39.60751343 -0.22659302 C40.54833771 -0.22674408 41.48916199 -0.22689514 42.45849609 -0.22705078 C43.28900482 -0.231492 44.11951355 -0.23593323 44.97518921 -0.24050903 C47 0 47 0 49 2 C49.1875 4.5625 49.1875 4.5625 49 7 C48 8 48 8 46.01951599 8.12025452 C45.15125687 8.11803391 44.28299774 8.11581329 43.38842773 8.11352539 C42.40748642 8.11344986 41.4265451 8.11337433 40.4158783 8.11329651 C39.3492244 8.10813522 38.2825705 8.10297394 37.18359375 8.09765625 C35.55430687 8.09553383 35.55430687 8.09553383 33.8921051 8.09336853 C30.40720925 8.08775048 26.92237658 8.07519492 23.4375 8.0625 C21.08138113 8.05748733 18.72526126 8.05292402 16.36914062 8.04882812 C10.57940536 8.03777519 4.78970719 8.02101951 -1 8 C-1 7.67 -1 7.34 -1 7 C13.19 7 27.38 7 42 7 C42 5.35 42 3.7 42 2 C28.14 1.67 14.28 1.34 0 1 C0 0.67 0 0.34 0 0 Z " fill="#7FDECB" transform="translate(16,109)"/>
<path d="M0 0 C1.51400391 0.01740234 1.51400391 0.01740234 3.05859375 0.03515625 C4.07050781 0.04417969 5.08242188 0.05320312 6.125 0.0625 C7.29869141 0.07990234 7.29869141 0.07990234 8.49609375 0.09765625 C7.18359375 1.59765625 7.18359375 1.59765625 5.49609375 3.09765625 C4.50609375 3.09765625 3.51609375 3.09765625 2.49609375 3.09765625 C2.82609375 3.75765625 3.15609375 4.41765625 3.49609375 5.09765625 C12.07609375 5.09765625 20.65609375 5.09765625 29.49609375 5.09765625 C29.82609375 4.43765625 30.15609375 3.77765625 30.49609375 3.09765625 C30.16609375 4.41765625 29.83609375 5.73765625 29.49609375 7.09765625 C18.60609375 7.09765625 7.71609375 7.09765625 -3.50390625 7.09765625 C-3.50390625 0.13665781 -3.50390625 0.13665781 0 0 Z " fill="#84D460" transform="translate(17.50390625,15.90234375)"/>
<path d="M0 0 C0.8146875 0.00257812 1.629375 0.00515625 2.46875 0.0078125 C3.2834375 0.00523438 4.098125 0.00265625 4.9375 0 C6.96875 0.1328125 6.96875 0.1328125 7.96875 1.1328125 C8.06735131 2.53629985 8.09953937 3.94461727 8.1015625 5.3515625 C8.10349609 6.62580078 8.10349609 6.62580078 8.10546875 7.92578125 C8.10160156 8.81910156 8.09773438 9.71242188 8.09375 10.6328125 C8.09761719 11.52613281 8.10148437 12.41945313 8.10546875 13.33984375 C8.10417969 14.18933594 8.10289063 15.03882812 8.1015625 15.9140625 C8.10043457 16.69845703 8.09930664 17.48285156 8.09814453 18.29101562 C7.96875 20.1328125 7.96875 20.1328125 6.96875 21.1328125 C5.28266034 21.20486761 3.59374341 21.21667318 1.90625 21.1953125 C0.98714844 21.18628906 0.06804688 21.17726563 -0.87890625 21.16796875 C-1.58917969 21.15636719 -2.29945312 21.14476563 -3.03125 21.1328125 C-3.06013146 17.82033063 -3.07800799 14.50788083 -3.09375 11.1953125 C-3.10212891 10.24978516 -3.11050781 9.30425781 -3.11914062 8.33007812 C-3.12236328 7.43095703 -3.12558594 6.53183594 -3.12890625 5.60546875 C-3.13414307 4.77281494 -3.13937988 3.94016113 -3.14477539 3.08227539 C-2.9874586 0.38082477 -2.69723352 0.17635758 0 0 Z M-1.03125 2.1328125 C-2.11367242 7.54492462 -3.13016374 13.38552814 -1.03125 18.6328125 C-0.70125 19.1278125 -0.37125 19.6228125 -0.03125 20.1328125 C1.28875 20.1328125 2.60875 20.1328125 3.96875 20.1328125 C3.96875 19.4728125 3.96875 18.8128125 3.96875 18.1328125 C4.95875 17.8028125 5.94875 17.4728125 6.96875 17.1328125 C6.96875 12.1828125 6.96875 7.2328125 6.96875 2.1328125 C4.32875 2.1328125 1.68875 2.1328125 -1.03125 2.1328125 Z " fill="#8ED36B" transform="translate(52.03125,58.8671875)"/>
<path d="M0 0 C0.33 0 0.66 0 1 0 C1 5.61 1 11.22 1 17 C1.66 17 2.32 17 3 17 C3 17.66 3 18.32 3 19 C2.34 19 1.68 19 1 19 C1.55312735 23.02992782 2.1558062 27.02022924 3 31 C2.34 31.33 1.68 31.66 1 32 C1 32.99 1 33.98 1 35 C1.66 35 2.32 35 3 35 C2.67 36.32 2.34 37.64 2 39 C1.34 39 0.68 39 0 39 C0 26.13 0 13.26 0 0 Z " fill="#FBDB70" transform="translate(153,32)"/>
<path d="M0 0 C2.38932765 3.58399147 3 5.73195001 3 10 C2.773125 10.61875 2.54625 11.2375 2.3125 11.875 C1.8559055 14.97984263 3.26514442 16.50180796 5 19 C0.44984107 17.48328036 -1.50057264 13.83108947 -4 10 C-2.84826645 7.53199953 -1.95216435 5.95216435 0 4 C0 2.68 0 1.36 0 0 Z " fill="#FBE481" transform="translate(7,174)"/>
<path d="M0 0 C-2.47758939 5.57457614 -6.15815983 9.36861987 -11 13 C-11.66 12.67 -12.32 12.34 -13 12 C-13 10.35 -13 8.7 -13 7 C-12.01 6.67 -11.02 6.34 -10 6 C-9.34 6.33 -8.68 6.66 -8 7 C-7.731875 6.401875 -7.46375 5.80375 -7.1875 5.1875 C-5.24288471 1.60531394 -4.204264 0 0 0 Z " fill="#FCE98E" transform="translate(154,184)"/>
<path d="M0 0 C5.70629354 0.42797202 9.41078616 2.84345952 14 6 C11.35261084 7.4606285 10.10551666 8 7 8 C7 7.01 7 6.02 7 5 C4.03 4.505 4.03 4.505 1 4 C0.67 2.68 0.34 1.36 0 0 Z " fill="#EC7660" transform="translate(124,23)"/>
<path d="M0 0 C1.21386936 3.64160808 0.6674695 4.33165469 -0.9375 7.6875 C-1.31777344 8.49574219 -1.69804687 9.30398437 -2.08984375 10.13671875 C-2.39019531 10.75160156 -2.69054687 11.36648437 -3 12 C-4.98 11.01 -6.96 10.02 -9 9 C-8.34 8.01 -7.68 7.02 -7 6 C-5.35 6.33 -3.7 6.66 -2 7 C-2.04125 6.21625 -2.0825 5.4325 -2.125 4.625 C-2 2 -2 2 0 0 Z " fill="#FDE583" transform="translate(158,172)"/>
<path d="M0 0 C0.66 0.33 1.32 0.66 2 1 C0.87926138 1.83905565 -0.24674547 2.67107831 -1.375 3.5 C-2.31472656 4.19609375 -2.31472656 4.19609375 -3.2734375 4.90625 C-5 6 -5 6 -7 6 C-7.33 6.99 -7.66 7.98 -8 9 C-8.99 9.33 -9.98 9.66 -11 10 C-11.99 11.485 -11.99 11.485 -13 13 C-13.66 12.67 -14.32 12.34 -15 12 C-11.03536752 6.44951453 -6.23400481 2.83564466 0 0 Z " fill="#79DFCA" transform="translate(100,29)"/>
<path d="M0 0 C1.9375 0.75 1.9375 0.75 4 2 C4.75 4.125 4.75 4.125 5 6 C3.68 6.33 2.36 6.66 1 7 C-0.32 5.35 -1.64 3.7 -3 2 C-2.01 1.34 -1.02 0.68 0 0 Z " fill="#FCDF60" transform="translate(144,7)"/>
<path d="M0 0 C1.32 1.65 2.64 3.3 4 5 C-5.41002278 5.3690205 -5.41002278 5.3690205 -10 3 C-10 2.67 -10 2.34 -10 2 C-6.7 2.33 -3.4 2.66 0 3 C0 2.01 0 1.02 0 0 Z " fill="#FBE694" transform="translate(27,195)"/>
<path d="M0 0 C0.33 0 0.66 0 1 0 C1.06058594 1.07121094 1.12117187 2.14242187 1.18359375 3.24609375 C1.26798537 4.64324391 1.35263406 6.04037857 1.4375 7.4375 C1.47681641 8.14455078 1.51613281 8.85160156 1.55664062 9.58007812 C1.47624438 13.08690419 1.47624438 13.08690419 3 16 C3.04063832 17.66617115 3.042721 19.33388095 3 21 C0.36253137 18.42483378 -0.21887499 16.45668604 -0.29296875 12.890625 C-0.27313353 11.34347769 -0.2375101 9.79646604 -0.1875 8.25 C-0.17396484 7.45722656 -0.16042969 6.66445312 -0.14648438 5.84765625 C-0.11125223 3.89814436 -0.05744821 1.94898374 0 0 Z " fill="#FAE587" transform="translate(0,161)"/>
<path d="M0 0 C1.47906892 -0.02689216 2.95827483 -0.04634621 4.4375 -0.0625 C5.26121094 -0.07410156 6.08492187 -0.08570313 6.93359375 -0.09765625 C9 0 9 0 10 1 C10.07244053 3.01964199 10.08377188 5.04167124 10.0625 7.0625 C10.05347656 8.16722656 10.04445313 9.27195312 10.03515625 10.41015625 C10.02355469 11.26480469 10.01195312 12.11945312 10 13 C9.67 13 9.34 13 9 13 C8.93941406 12.37351562 8.87882812 11.74703125 8.81640625 11.1015625 C8.69072266 9.87566406 8.69072266 9.87566406 8.5625 8.625 C8.48128906 7.81289063 8.40007813 7.00078125 8.31640625 6.1640625 C8.10909886 3.95727195 8.10909886 3.95727195 7 2 C4.67843403 1.59270772 2.3431213 1.25561323 0 1 C0 0.67 0 0.34 0 0 Z " fill="#F7A377" transform="translate(17,49)"/>
<path d="M0 0 C2.125 0.9375 2.125 0.9375 4 2 C2.68 3.65 1.36 5.3 0 7 C-0.66 6.67 -1.32 6.34 -2 6 C-2 4.35 -2 2.7 -2 1 C-1.34 0.67 -0.68 0.34 0 0 Z " fill="#FDE57F" transform="translate(143,190)"/>
<path d="M0 0 C0.66 0.33 1.32 0.66 2 1 C1.54625 1.7425 1.0925 2.485 0.625 3.25 C-0.68640796 5.46930578 -1.88280803 7.67967822 -3 10 C-3.66 8.35 -4.32 6.7 -5 5 C-3.35 3.35 -1.7 1.7 0 0 Z " fill="#EFF5E3" transform="translate(16,11)"/>
<path d="M0 0 C3.16115776 1.36983503 3.9927092 1.9890638 6 5 C2.25 6.125 2.25 6.125 0 5 C0 3.35 0 1.7 0 0 Z " fill="#75DDC4" transform="translate(124,72)"/>
<path d="M0 0 C1.37562854 1.28965176 2.70766393 2.62689293 4 4 C4 4.66 4 5.32 4 6 C2.35 5.67 0.7 5.34 -1 5 C-1.33 3.68 -1.66 2.36 -2 1 C-1.01 1.495 -1.01 1.495 0 2 C0 1.34 0 0.68 0 0 Z " fill="#EF7968" transform="translate(141,33)"/>
<path d="M0 0 C2.475 0.495 2.475 0.495 5 1 C5 2.32 5 3.64 5 5 C3.0625 4.1875 3.0625 4.1875 1 3 C0.67 2.01 0.34 1.02 0 0 Z " fill="#FDDE58" transform="translate(136,192)"/>
<path d="M0 0 C1.32 1.65 2.64 3.3 4 5 C3.34 5.66 2.68 6.32 2 7 C0.35 5.02 -1.3 3.04 -3 1 C-2.01 0.67 -1.02 0.34 0 0 Z " fill="#F2CB65" transform="translate(138,75)"/>
<path d="M0 0 C2.62386487 3.06117568 3 3.73173127 3 8 C2.01 7.67 1.02 7.34 0 7 C-0.38133299 5.0085944 -0.71325582 3.00720923 -1 1 C-0.67 0.67 -0.34 0.34 0 0 Z " fill="#EA7A65" transform="translate(145,39)"/>
<path d="M0 0 C0 1.32 0 2.64 0 4 C-2.31 3.67 -4.62 3.34 -7 3 C-4.49955934 -0.00052879 -4.2621484 0 0 0 Z " fill="#FDDD55" transform="translate(18,6)"/>
<path d="M0 0 C0.66 0.33 1.32 0.66 2 1 C1.67 1.99 1.34 2.98 1 4 C-1.31 4.33 -3.62 4.66 -6 5 C-2.25 1.125 -2.25 1.125 0 0 Z " fill="#FDEA9B" transform="translate(18,2)"/>
</svg>
